HIERARCHY
ROOT Hips
{
  OFFSET 5.84602e-005 68.8428 3.50346
  CHANNELS 6 Xposition Yposition Zposition Zrotation Xrotation Yrotation
  JOINT Spine
  {
    OFFSET 0 8.597 -4.6522
    CHANNELS 3 Zrotation Xrotation Yrotation
    JOINT Spine1
    {
      OFFSET 0 7.8454 0.4098
      CHANNELS 3 Zrotation Xrotation Yrotation
      JOINT Spine2
      {
        OFFSET 0 9.7078 -2.1609
        CHANNELS 3 Zrotation Xrotation Yrotation
        JOINT Neck
        {
          OFFSET 0 21.8761 -0.4549
          CHANNELS 3 Zrotation Xrotation Yrotation
          JOINT Head
          {
            OFFSET 0 12.3537 3.3602
            CHANNELS 3 Zrotation Xrotation Yrotation
            End Site
            {
              OFFSET 0.0001 18.9506 0.5657
            }
          }
        }
        JOINT LeftShoulder
        {
          OFFSET 2.2086 21.1115 7.2329
          CHANNELS 3 Zrotation Xrotation Yrotation
          JOINT LeftArm
          {
            OFFSET 13.1193 3.0282 -4.8998
            CHANNELS 3 Zrotation Xrotation Yrotation
            JOINT LeftForeArm
            {
              OFFSET 27.4081 -0.0973053 -0.2375
              CHANNELS 3 Zrotation Xrotation Yrotation
              JOINT LeftHand
              {
                OFFSET 22.8641 0.0662994 -0.1369
                CHANNELS 3 Zrotation Xrotation Yrotation
                JOINT LeftHandIndex1
                {
                  OFFSET 8.8614 0.775009 2.4612
                  CHANNELS 3 Zrotation Xrotation Yrotation
                  JOINT LeftHandIndex2
                  {
                    OFFSET 3.3146 -0.808304 0.5841
                    CHANNELS 3 Zrotation Xrotation Yrotation
                    JOINT LeftHandIndex3
                    {
                      OFFSET 2.2628 -0.552002 0.3989
                      CHANNELS 3 Zrotation Xrotation Yrotation
                      End Site
                      {
                        OFFSET 1.6102 -0.4807 0.2612
                      }
                    }
                  }
                }
                JOINT LeftHandMiddle1
                {
                  OFFSET 8.9937 0.895004 0.2143
                  CHANNELS 3 Zrotation Xrotation Yrotation
                  JOINT LeftHandMiddle2
                  {
                    OFFSET 4.0984 0.0113983 -0.0242
                    CHANNELS 3 Zrotation Xrotation Yrotation
                    JOINT LeftHandMiddle3
                    {
                      OFFSET 2.2716 0.00689697 -0.0138001
                      CHANNELS 3 Zrotation Xrotation Yrotation
                      End Site
                      {
                        OFFSET 2.0404 -0.1441 0.0027
                      }
                    }
                  }
                }
                JOINT LeftHandRing1
                {
                  OFFSET 8.5234 0.597198 -2.0164
                  CHANNELS 3 Zrotation Xrotation Yrotation
                  JOINT LeftHandRing2
                  {
                    OFFSET 3.7188 -0.188293 -0.2328
                    CHANNELS 3 Zrotation Xrotation Yrotation
                    JOINT LeftHandRing3
                    {
                      OFFSET 2.1191 -0.106598 -0.1332
                      CHANNELS 3 Zrotation Xrotation Yrotation
                      End Site
                      {
                        OFFSET 1.8737 -0.2304 -0.0886
                      }
                    }
                  }
                }
                JOINT LeftHandPinky1
                {
                  OFFSET 7.9094 -0.601089 -3.4825
                  CHANNELS 3 Zrotation Xrotation Yrotation
                  JOINT LeftHandPinky2
                  {
                    OFFSET 2.2874 -0.477005 -0.6314
                    CHANNELS 3 Zrotation Xrotation Yrotation
                    JOINT LeftHandPinky3
                    {
                      OFFSET 1.6774 -0.349396 -0.4633
                      CHANNELS 3 Zrotation Xrotation Yrotation
                      End Site
                      {
                        OFFSET 1.4888 -0.4091 -0.3416
                      }
                    }
                  }
                }
                JOINT LeftHandThumb1
                {
                  OFFSET 1.833 -1.3875 1.3896
                  CHANNELS 3 Zrotation Xrotation Yrotation
                  JOINT LeftHandThumb2
                  {
                    OFFSET 3.4129 -1.121 2.5732
                    CHANNELS 3 Zrotation Xrotation Yrotation
                    JOINT LeftHandThumb3
                    {
                      OFFSET 2.2474 -0.804199 1.6192
                      CHANNELS 3 Zrotation Xrotation Yrotation
                      End Site
                      {
                        OFFSET 1.6527 -0.5689 1.1317
                      }
                    }
                  }
                }
              }
            }
          }
        }
        JOINT RightShoulder
        {
          OFFSET -2.2086 21.1115 7.2329
          CHANNELS 3 Zrotation Xrotation Yrotation
          JOINT RightArm
          {
            OFFSET -13.1216 3.0287 -4.9007
            CHANNELS 3 Zrotation Xrotation Yrotation
            JOINT RightForeArm
            {
              OFFSET -27.4081 -0.0973053 -0.2375
              CHANNELS 3 Zrotation Xrotation Yrotation
              JOINT RightHand
              {
                OFFSET -22.8641 0.0664063 -0.1369
                CHANNELS 3 Zrotation Xrotation Yrotation
                JOINT RightHandIndex1
                {
                  OFFSET -8.8614 0.774994 2.4612
                  CHANNELS 3 Zrotation Xrotation Yrotation
                  JOINT RightHandIndex2
                  {
                    OFFSET -3.3146 -0.808304 0.5841
                    CHANNELS 3 Zrotation Xrotation Yrotation
                    JOINT RightHandIndex3
                    {
                      OFFSET -2.2628 -0.552002 0.3989
                      CHANNELS 3 Zrotation Xrotation Yrotation
                      End Site
                      {
                        OFFSET -1.6102 -0.4807 0.2612
                      }
                    }
                  }
                }
                JOINT RightHandMiddle1
                {
                  OFFSET -8.9937 0.894989 0.2143
                  CHANNELS 3 Zrotation Xrotation Yrotation
                  JOINT RightHandMiddle2
                  {
                    OFFSET -4.0984 0.0113983 -0.0242
                    CHANNELS 3 Zrotation Xrotation Yrotation
                    JOINT RightHandMiddle3
                    {
                      OFFSET -2.2716 0.00691223 -0.0138001
                      CHANNELS 3 Zrotation Xrotation Yrotation
                      End Site
                      {
                        OFFSET -2.0404 -0.1441 0.0027
                      }
                    }
                  }
                }
                JOINT RightHandRing1
                {
                  OFFSET -8.5234 0.597198 -2.0164
                  CHANNELS 3 Zrotation Xrotation Yrotation
                  JOINT RightHandRing2
                  {
                    OFFSET -3.7188 -0.188309 -0.2328
                    CHANNELS 3 Zrotation Xrotation Yrotation
                    JOINT RightHandRing3
                    {
                      OFFSET -2.1191 -0.106598 -0.1332
                      CHANNELS 3 Zrotation Xrotation Yrotation
                      End Site
                      {
                        OFFSET -1.8737 -0.2304 -0.0886
                      }
                    }
                  }
                }
                JOINT RightHandPinky1
                {
                  OFFSET -7.9094 -0.601105 -3.4825
                  CHANNELS 3 Zrotation Xrotation Yrotation
                  JOINT RightHandPinky2
                  {
                    OFFSET -2.2874 -0.477005 -0.6314
                    CHANNELS 3 Zrotation Xrotation Yrotation
                    JOINT RightHandPinky3
                    {
                      OFFSET -1.6774 -0.349396 -0.4633
                      CHANNELS 3 Zrotation Xrotation Yrotation
                      End Site
                      {
                        OFFSET -1.4888 -0.4091 -0.3416
                      }
                    }
                  }
                }
                JOINT RightHandThumb1
                {
                  OFFSET -1.833 -1.38751 1.3896
                  CHANNELS 3 Zrotation Xrotation Yrotation
                  JOINT RightHandThumb2
                  {
                    OFFSET -3.41299 -1.12099 2.5732
                    CHANNELS 3 Zrotation Xrotation Yrotation
                    JOINT RightHandThumb3
                    {
                      OFFSET -2.24741 -0.804108 1.6192
                      CHANNELS 3 Zrotation Xrotation Yrotation
                      End Site
                      {
                        OFFSET -1.6527 -0.5689 1.1317
                      }
                    }
                  }
                }
              }
            }
          }
        }
      }
    }
  }
  JOINT RightUpLeg
  {
    OFFSET -9.1966 3.8861 -0.7581
    CHANNELS 3 Zrotation Xrotation Yrotation
    JOINT RightLeg
    {
      OFFSET -0.7359 -41.0265 0
      CHANNELS 3 Zrotation Xrotation Yrotation
      JOINT RightFoot
      {
        OFFSET 0 -40.2855 0
        CHANNELS 3 Zrotation Xrotation Yrotation
        JOINT RightToeBase
        {
          OFFSET 0 -5.6122 11.7359
          CHANNELS 3 Zrotation Xrotation Yrotation
          End Site
          {
            OFFSET 0 0 7.8731
          }
        }
      }
    }
  }
  JOINT LeftUpLeg
  {
    OFFSET 9.1965 3.8864 -0.7581
    CHANNELS 3 Zrotation Xrotation Yrotation
    JOINT LeftLeg
    {
      OFFSET 0.7359 -41.0268 0
      CHANNELS 3 Zrotation Xrotation Yrotation
      JOINT LeftFoot
      {
        OFFSET 0 -40.2855 0
        CHANNELS 3 Zrotation Xrotation Yrotation
        JOINT LeftToeBase
        {
          OFFSET 0 -5.6122 11.7359
          CHANNELS 3 Zrotation Xrotation Yrotation
          End Site
          {
            OFFSET 0 0 7.8731
          }
        }
      }
    }
  }
}
MOTION
Frames:	4
Frame Time:	0.0333333
5.84602e-005 68.8428 3.50346 0 0 -0 0 0 -0 0 0 -0 0 0 -0 0 0 -0 0 0 -0 0 0 -0 0 0 -0 0 0 -0 0 0 -0 0 0 -0 0 0 -0 0 0 -0 0 0 -0 -0.0146107 -8.87603e-005 -2.63497e-007 2.99804e-018 -2.42657e-020 -1.42182e-022 0 0 -0 -0.0187562 -0.001176 5.858e-005 5.06224e-018 3.88251e-019 1.21329e-020 0 0 -0 -0.012269 -0.00324817 0.000675346 -1.74678e-018 3.88251e-019 -0 0 0 -0 0 0 -0 0 0 -0 0 0 -0 0 0 -0 0 0 -0 0 0 -0 0 0 -0 0 0 -0 0 0 -0 0 0 -0 0.0149955 -9.10982e-005 2.64101e-007 -9.69331e-018 1.21329e-020 -4.7394e-023 0 0 -0 0.0189956 -0.00119102 -5.96516e-005 -5.41541e-019 0 2.42657e-020 0 0 -0 0.0122698 -0.00324857 -0.000673756 -2.00796e-019 0 -1.94126e-019 0 0 -0 0 0 -0 0 0 -0 3.39842 1.33031 -0.0637918 -5.65207e-008 0.834868 -0.000436188 -3.39935 -2.16518 -0.0642563 -8.89002e-024 -1.18485e-023 -1.48106e-024 -3.39844 1.35642 0.0640283 -3.18788e-007 0.782166 -0.000588827 3.39931 -2.13858 0.0634662 1.1399e-023 0 -0 
-0.626127 68.2021 33.0275 0.0104159 -8.99857 -179.868 0.0150371 -0.0763864 -0.119009 0.0299156 -0.152777 -0.237998 0.0299156 -0.152785 -0.237998 9.53519e-005 -0.501942 -0.000808582 -5.0196e-009 -0.841064 8.26535e-008 -24.4142 11.4602 38.4517 -52.2541 8.08582 -106.617 -10.4669 13.6579 -75.9248 -0.54404 -6.80685 27.8896 1.59028e-015 -2.38542e-015 -6.36111e-015 7.95139e-015 8.74653e-015 -3.18055e-015 7.95139e-015 0 -0 1.59028e-015 -2.38542e-015 -6.36111e-015 -0.014644 -8.78362e-005 -2.17175e-006 -6.36111e-015 -1.59028e-015 3.18055e-015 1.59028e-015 -2.38542e-015 -6.36111e-015 -0.0187577 -0.00117152 5.81739e-005 -1.59028e-015 -7.95139e-015 -0 1.59028e-015 -2.38542e-015 -6.36111e-015 -0.0122113 -0.00322696 0.000672163 -3.18055e-015 0 9.54166e-015 1.59028e-015 -2.38542e-015 -6.36111e-015 7.95139e-015 8.74653e-015 -3.18055e-015 7.95139e-015 0 -0 19.2284 11.8954 -26.0758 55.1987 6.20425 103.491 6.06907 5.51804 54.8766 7.36126 -0.97962 -12.8449 -2.48517e-006 -1.48876e-006 1.17234e-006 -2.48517e-006 -1.48876e-006 1.17234e-006 4.77083e-015 3.97569e-016 6.36111e-015 -2.48517e-006 -1.48876e-006 1.17234e-006 0.0149703 -9.29546e-005 4.04295e-006 0 2.78299e-015 -0 -2.48517e-006 -1.48876e-006 1.17234e-006 0.01906 -0.00120118 -5.92788e-005 -3.18055e-015 7.55382e-015 -0 -2.48517e-006 -1.48876e-006 1.17234e-006 0.0122421 -0.00324342 -0.000675201 3.18055e-015 -7.55382e-015 -6.36111e-015 -2.48517e-006 -1.48876e-006 1.17234e-006 -2.48517e-006 -1.48876e-006 1.17234e-006 4.77083e-015 3.97569e-016 6.36111e-015 -7.25197 -35.2849 -14.9575 -2.19223 43.839 1.28482 10.209 -16.3445 -4.04012 2.8715e-008 -4.14055e-008 1.6915e-006 8.30583 -35.3637 15.0748 1.97295 43.6641 -1.16523 -10.9849 -16.4106 3.92644 -6.43095e-008 -2.00263e-007 -1.70151e-006 
-0.625849 68.2709 32.1812 0.00788389 -7.3902 -179.878 0.0140591 0.286873 -0.121993 0.0287295 0.573717 -0.244061 0.0287295 0.573711 -0.24406 5.65116e-007 -0.99858 -6.72333e-006 -7.31777e-011 -1.66904 -1.92617e-007 -24.2792 11.4327 38.0061 -52.2541 8.08582 -106.617 -10.3772 13.3641 -75.2309 -0.781194 -6.56025 27.2711 1.20237e-006 1.38533e-006 2.49443e-006 -5.67659e-006 1.64139e-006 1.14513e-007 1.20237e-006 1.38533e-006 2.49443e-006 1.20237e-006 1.38533e-006 2.49443e-006 -0.0145598 -9.04937e-005 -4.75653e-008 1.20256e-006 1.38501e-006 2.4946e-006 1.20237e-006 1.38533e-006 2.49443e-006 -0.0188176 -0.00118177 6.20199e-005 1.20264e-006 1.38493e-006 2.49464e-006 1.20237e-006 1.38533e-006 2.49443e-006 -0.0123157 -0.00326499 0.000677396 1.20261e-006 1.38509e-006 2.49453e-006 1.20237e-006 1.38533e-006 2.49443e-006 -5.67659e-006 1.64139e-006 1.14513e-007 1.20237e-006 1.38533e-006 2.49443e-006 18.9951 11.7787 -25.5979 55.2729 6.10236 103.656 5.92401 5.28143 53.6871 7.41213 -0.799693 -12.007 0 0 -0 3.18055e-015 3.97569e-016 3.18055e-015 -6.36111e-015 2.78299e-015 3.18055e-015 0 0 -0 0.0149967 -9.13731e-005 -1.08875e-006 -1.59028e-015 3.97569e-015 3.18055e-015 0 0 -0 0.0189877 -0.00119457 -5.99868e-005 3.07297e-006 3.64774e-007 1.02699e-006 0 0 -0 0.0123044 -0.00325715 -0.00067724 4.77083e-015 -2.78299e-015 -3.18055e-015 0 0 -0 3.18055e-015 3.97569e-016 3.18055e-015 -6.36111e-015 2.78299e-015 3.18055e-015 -7.14514 -33.1043 -14.7802 -2.19305 43.8534 1.30223 10.3337 -16.8055 -3.83432 -8.43563e-007 -1.19918e-007 -7.24979e-010 8.19487 -33.1678 14.8917 1.97369 43.679 -1.18271 -11.1126 -16.8741 3.68567 2.65329e-008 1.57502e-007 1.07135e-008 
-0.625534 68.3456 31.3364 0.00563046 -5.77832 -179.888 0.0130999 0.653102 -0.124799 0.0276252 1.30619 -0.249772 0.0276252 1.30618 -0.249772 1.82011e-006 -1.49617 -1.22386e-005 7.51776e-009 -2.49883 2.21161e-008 -24.1442 11.4041 37.5595 -52.2542 8.08585 -106.617 -10.2839 13.0713 -74.5371 -1.01566 -6.311 26.6537 -2.4968e-006 1.4381e-006 1.20245e-006 -2.4968e-006 1.4381e-006 1.20245e-006 1.4381e-006 2.4968e-006 -1.38378e-006 -2.4968e-006 1.4381e-006 1.20245e-006 -0.0146059 -8.78658e-005 8.71446e-007 1.43794e-006 2.49698e-006 -1.38346e-006 -2.4968e-006 1.4381e-006 1.20245e-006 -0.0187369 -0.00117445 6.20345e-005 1.43789e-006 2.49701e-006 -1.38339e-006 -2.4968e-006 1.4381e-006 1.20245e-006 -0.0123489 -0.00327007 0.000689089 1.43794e-006 2.49691e-006 -1.38355e-006 -2.4968e-006 1.4381e-006 1.20245e-006 -2.4968e-006 1.4381e-006 1.20245e-006 1.4381e-006 2.4968e-006 -1.38378e-006 18.7631 11.6594 -25.1212 55.3473 6.00069 103.821 5.7739 5.04757 52.4958 7.46036 -0.61893 -11.1688 0 3.97569e-015 -0 1.59028e-015 -3.57812e-015 -0 -1.59028e-015 -9.54166e-015 6.36111e-015 0 3.97569e-015 -0 0.0150302 -9.24378e-005 2.08791e-006 -1.32417e-031 -2.38542e-015 -3.18055e-015 0 3.97569e-015 -0 0.0189963 -0.00119239 -5.9854e-005 -3.18055e-015 -6.36111e-015 -0 0 3.97569e-015 -0 0.0122426 -0.00324162 -0.000673614 -1.59028e-015 -7.95139e-015 -6.36111e-015 0 3.97569e-015 -0 1.59028e-015 -3.57812e-015 -0 -1.59028e-015 -9.54166e-015 6.36111e-015 -7.04843 -30.9146 -14.6111 -2.19392 43.8687 1.31978 10.4604 -17.2666 -3.62691 -8.32083e-007 -7.45015e-008 1.68392e-006 8.09448 -30.9628 14.7172 1.97447 43.6947 -1.20034 -11.2426 -17.3376 3.44316 8.93104e-007 1.73444e-007 1.71834e-008 
